<?xml version="1.0" encoding="utf-8"?><!-- Uploaded to: SVG Repo, www.svgrepo.com, Generator: SVG Repo Mixer Tools -->
<svg width="800px" height="800px" viewBox="0 0 32 32" fill="none" xmlns="http://www.w3.org/2000/svg">
<path d="M26.7009 9.91314V13.2472C26.7009 13.2472 25.1213 13.1853 23.9515 12.8879C22.3188 12.4718 21.2688 11.8337 21.2688 11.8337C21.2688 11.8337 20.5444 11.3787 20.4858 11.3464V20.1364C20.4858 20.6258 20.3518 21.8484 19.9432 22.8672C19.4098 24.2012 18.5867 25.0764 18.4353 25.2553C18.4353 25.2553 17.4337 26.4384 15.668 27.2352C14.0765 27.9539 12.6788 27.9357 12.2604 27.9539C12.2604 27.9539 9.84473 28.0496 7.66995 26.6366L7.6591 26.6288C7.42949 26.4064 7.21336 26.1717 7.01177 25.9257C6.31777 25.0795 5.89237 24.0789 5.78547 23.7934C5.78529 23.7922 5.78529 23.791 5.78547 23.7898C5.61347 23.2937 5.25209 22.1022 5.30147 20.9482C5.38883 18.9122 6.10507 17.6625 6.29444 17.3494C6.79597 16.4957 7.44828 15.7318 8.22233 15.0919C8.90538 14.5396 9.6796 14.1002 10.5132 13.7917C11.4144 13.4295 12.3794 13.2353 13.3565 13.2197V16.5948C13.3565 16.5948 11.5691 16.028 10.1388 17.0317C9.13879 17.7743 8.60812 18.4987 8.45185 19.7926C8.44534 20.7449 8.68897 22.0923 10.0254 22.991C10.1813 23.0898 10.3343 23.1775 10.4845 23.2541C10.7179 23.5576 11.0021 23.8221 11.3255 24.0368C12.631 24.8632 13.7249 24.9209 15.1238 24.3842C16.0565 24.0254 16.7586 23.2167 17.0842 22.3206C17.2888 21.7611 17.2861 21.1978 17.2861 20.6154V4.04639H20.5417C20.6763 4.81139 21.0485 5.90039 22.0328 6.97898C22.4276 7.38624 22.8724 7.7463 23.3573 8.05134C23.5006 8.19955 24.2331 8.93231 25.1734 9.38216C25.6596 9.61469 26.1722 9.79285 26.7009 9.91314Z" fill="#000000"/>
<path d="M4.48926 22.7568V22.7594L4.57004 22.9784C4.56076 22.9529 4.53074 22.8754 4.48926 22.7568Z" fill="#69C9D0"/>

</svg>